{
  "asset": {
    "generator": "Khronos glTF Blender I/O v1.6.8",
    "version": "2.0"
  },
  "scene": 0,
  "scenes": [
    {
      "name": "Scene",
      "nodes": [
        0
      ]
    }
  ],
  "nodes": [
    {
      "mesh": 0,
      "name": "sphere_gltf.001"
    }
  ],
  "materials": [
    {
      "doubleSided": true,
      "name": "white_plaster_rough_02",
      "normalTexture": {
        "index": 0
      },
      "pbrMetallicRoughness": {
        "baseColorTexture": {
          "index": 1
        },
        "metallicFactor": 0,
        "metallicRoughnessTexture": {
          "index": 2
        }
      }
    }
  ],
  "meshes": [
    {
      "name": "Sphere.001",
      "primitives": [
        {
          "attributes": {
            "POSITION": 0,
            "NORMAL": 1,
            "TEXCOORD_0": 2
          },
          "indices": 3,
          "material": 0
        }
      ]
    }
  ],
  "textures": [
    {
      "sampler": 0,
      "source": 0
    },
    {
      "sampler": 0,
      "source": 1
    },
    {
      "sampler": 0,
      "source": 2
    }
  ],
  "images": [
    {
      "mimeType": "image/jpeg",
      "name": "white_plaster_rough_02_nor_gl_4k",
      "uri": "textures/white_plaster_rough_02_nor_gl_1k.jpg"
    },
    {
      "mimeType": "image/jpeg",
      "name": "white_plaster_rough_02_diff_4k",
      "uri": "textures/white_plaster_rough_02_diff_1k.jpg"
    },
    {
      "mimeType": "image/jpeg",
      "name": "white_plaster_rough_02_Rough_4k",
      "uri": "textures/white_plaster_rough_02_rough_1k.jpg"
    }
  ],
  "accessors": [
    {
      "bufferView": 0,
      "componentType": 5126,
      "count": 53917,
      "max": [
        0.5027056336402893,
        0.5030473470687866,
        0.49997180700302124
      ],
      "min": [
        -0.5027052164077759,
        -0.5038495659828186,
        -0.49997150897979736
      ],
      "type": "VEC3"
    },
    {
      "bufferView": 1,
      "componentType": 5126,
      "count": 53917,
      "type": "VEC3"
    },
    {
      "bufferView": 2,
      "componentType": 5126,
      "count": 53917,
      "type": "VEC2"
    },
    {
      "bufferView": 3,
      "componentType": 5123,
      "count": 322170,
      "type": "SCALAR"
    }
  ],
  "bufferViews": [
    {
      "buffer": 0,
      "byteLength": 647004,
      "byteOffset": 0
    },
    {
      "buffer": 0,
      "byteLength": 647004,
      "byteOffset": 647004
    },
    {
      "buffer": 0,
      "byteLength": 431336,
      "byteOffset": 1294008
    },
    {
      "buffer": 0,
      "byteLength": 644340,
      "byteOffset": 1725344
    }
  ],
  "samplers": [
    {
      "magFilter": 9729,
      "minFilter": 9987
    }
  ],
  "buffers": [
    {
      "byteLength": 2369684,
      "uri": "white_plaster_rough_02.bin"
    }
  ]
}