{
  "asset": {
    "generator": "Khronos glTF Blender I/O v1.6.16",
    "version": "2.0"
  },
  "scene": 0,
  "scenes": [
    {
      "name": "Scene",
      "nodes": [
        0
      ]
    }
  ],
  "nodes": [
    {
      "mesh": 0,
      "name": "sphere_gltf"
    }
  ],
  "materials": [
    {
      "doubleSided": true,
      "name": "roof_07",
      "normalTexture": {
        "index": 0
      },
      "pbrMetallicRoughness": {
        "baseColorTexture": {
          "index": 1
        },
        "metallicFactor": 0,
        "metallicRoughnessTexture": {
          "index": 2
        }
      }
    }
  ],
  "meshes": [
    {
      "name": "Sphere.001",
      "primitives": [
        {
          "attributes": {
            "POSITION": 0,
            "NORMAL": 1,
            "TEXCOORD_0": 2
          },
          "indices": 3,
          "material": 0
        }
      ]
    }
  ],
  "textures": [
    {
      "sampler": 0,
      "source": 0
    },
    {
      "sampler": 0,
      "source": 1
    },
    {
      "sampler": 0,
      "source": 2
    }
  ],
  "images": [
    {
      "mimeType": "image/jpeg",
      "name": "roof_07_nor_gl_4k",
      "uri": "textures/roof_07_nor_gl_1k.jpg"
    },
    {
      "mimeType": "image/jpeg",
      "name": "roof_07_diff_4k",
      "uri": "textures/roof_07_diff_1k.jpg"
    },
    {
      "mimeType": "image/jpeg",
      "name": "roof_07_rough_4k",
      "uri": "textures/roof_07_rough_1k.jpg"
    }
  ],
  "accessors": [
    {
      "bufferView": 0,
      "componentType": 5126,
      "count": 53829,
      "max": [
        1.0246222019195557,
        1.0274267196655273,
        1.0327520370483398
      ],
      "min": [
        -1.0246220827102661,
        -1.0243415832519531,
        -1.0328799486160278
      ],
      "type": "VEC3"
    },
    {
      "bufferView": 1,
      "componentType": 5126,
      "count": 53829,
      "type": "VEC3"
    },
    {
      "bufferView": 2,
      "componentType": 5126,
      "count": 53829,
      "type": "VEC2"
    },
    {
      "bufferView": 3,
      "componentType": 5123,
      "count": 322170,
      "type": "SCALAR"
    }
  ],
  "bufferViews": [
    {
      "buffer": 0,
      "byteLength": 645948,
      "byteOffset": 0
    },
    {
      "buffer": 0,
      "byteLength": 645948,
      "byteOffset": 645948
    },
    {
      "buffer": 0,
      "byteLength": 430632,
      "byteOffset": 1291896
    },
    {
      "buffer": 0,
      "byteLength": 644340,
      "byteOffset": 1722528
    }
  ],
  "samplers": [
    {
      "magFilter": 9729,
      "minFilter": 9987
    }
  ],
  "buffers": [
    {
      "byteLength": 2366868,
      "uri": "roof_07.bin"
    }
  ]
}